<svg xmlns="http://www.w3.org/2000/svg" viewBox="0 0 40 40" fill="none">
  <rect width="40" height="40" rx="8" fill="#F5F5F5"/>
  <circle cx="20" cy="20" r="12" fill="#0D6B52"/>
  <path d="M20 10c0 0-5 3-5 8s3 7 5 9c2-2 5-4 5-9s-5-8-5-8z" fill="#1DB883" opacity="0.9"/>
  <path d="M20 12c0 0-3.5 2.5-3.5 6s2 5 3.5 6.5c1.5-1.5 3.5-3 3.5-6.5s-3.5-6-3.5-6z" fill="#fff" opacity="0.3"/>
  <path d="M18.5 18l1.5-2 1.5 2" stroke="#fff" stroke-width="1" stroke-linecap="round" fill="none"/>
  <line x1="20" y1="16" x2="20" y2="24" stroke="#fff" stroke-width="1" stroke-linecap="round"/>
  <path d="M17 21c1 1.5 2 2 3 2.5 1-.5 2-1 3-2.5" stroke="#fff" stroke-width="0.8" stroke-linecap="round" fill="none"/>
</svg>
