<svg xmlns="http://www.w3.org/2000/svg" viewBox="0 0 40 40" fill="none">
  <rect width="40" height="40" rx="8" fill="#F5F5F5"/>
  <circle cx="20" cy="20" r="12" fill="#0B0B0B"/>
  <defs>
    <linearGradient id="lace-swirl" x1="12" y1="12" x2="28" y2="28" gradientUnits="userSpaceOnUse">
      <stop stop-color="#FF6B8A"/>
      <stop offset="0.5" stop-color="#F5A623"/>
      <stop offset="1" stop-color="#FF6B8A"/>
    </linearGradient>
  </defs>
  <path d="M20 11c-2 0-4 1-5 3-1.5 2.5-.5 5 1 7 1 1.2 2.5 2 4 2s3-.8 4-2c1.5-2 2.5-4.5 1-7-1-2-3-3-5-3z" stroke="url(#lace-swirl)" stroke-width="2" fill="none"/>
  <path d="M18 15c-1 1.5-.5 3 .5 4s2.5 1 3.5 0 1-2.5 0-4c-.5-.7-1.5-1-2.2-.7-.5.2-.8.5-1 1" stroke="url(#lace-swirl)" stroke-width="1.5" fill="none" stroke-linecap="round"/>
  <circle cx="20" cy="19" r="1.5" fill="url(#lace-swirl)"/>
</svg>
