<svg xmlns="http://www.w3.org/2000/svg" viewBox="0 0 40 40" fill="none">
  <rect width="40" height="40" rx="8" fill="#F5F5F5"/>
  <path d="M31 11l-9.5 7 1.8-4.2L31 11z" fill="#E2761B" stroke="#E2761B" stroke-width="0.3"/>
  <path d="M9 11l9.4 7.1-1.7-4.3L9 11z" fill="#E4761B" stroke="#E4761B" stroke-width="0.3"/>
  <path d="M27.3 25.5l-2.5 3.9 5.4 1.5 1.6-5.3-4.5-.1z" fill="#E4761B" stroke="#E4761B" stroke-width="0.3"/>
  <path d="M8.2 25.6l1.5 5.3 5.4-1.5-2.5-3.9-4.4.1z" fill="#E4761B" stroke="#E4761B" stroke-width="0.3"/>
  <path d="M14.8 18.5l-1.5 2.3 5.3.2-.2-5.7-3.6 3.2z" fill="#E4761B" stroke="#E4761B" stroke-width="0.3"/>
  <path d="M25.2 18.5l-3.7-3.3-.1 5.8 5.3-.2-1.5-2.3z" fill="#E4761B" stroke="#E4761B" stroke-width="0.3"/>
  <path d="M15.1 29.4l3.2-1.6-2.8-2.2-.4 3.8z" fill="#E4761B" stroke="#E4761B" stroke-width="0.3"/>
  <path d="M21.7 27.8l3.2 1.6-.4-3.8-2.8 2.2z" fill="#E4761B" stroke="#E4761B" stroke-width="0.3"/>
  <path d="M24.9 29.4l-3.2-1.6.3 2.1v.9l2.9-1.4z" fill="#D7C1B3" stroke="#D7C1B3" stroke-width="0.3"/>
  <path d="M15.1 29.4l2.9 1.4v-.9l.2-2.1-3.1 1.6z" fill="#D7C1B3" stroke="#D7C1B3" stroke-width="0.3"/>
  <path d="M18.1 23.7l-2.7-.8 1.9-.9.8 1.7z" fill="#233447" stroke="#233447" stroke-width="0.3"/>
  <path d="M21.9 23.7l.8-1.7 1.9.9-2.7.8z" fill="#233447" stroke="#233447" stroke-width="0.3"/>
  <path d="M15.1 29.4l.4-3.9-2.9.1 2.5 3.8z" fill="#CD6116" stroke="#CD6116" stroke-width="0.3"/>
  <path d="M24.5 25.5l.4 3.9 2.5-3.8-2.9-.1z" fill="#CD6116" stroke="#CD6116" stroke-width="0.3"/>
  <path d="M26.7 20.8l-5.3.2.5 2.7.8-1.7 1.9.9 2.1-2.1z" fill="#CD6116" stroke="#CD6116" stroke-width="0.3"/>
  <path d="M15.4 22.9l1.9-.9.8 1.7.5-2.7-5.3-.2 2.1 2.1z" fill="#CD6116" stroke="#CD6116" stroke-width="0.3"/>
  <path d="M13.3 20.8l2.2 4.3-.1-2.2-2.1-2.1z" fill="#E4751F" stroke="#E4751F" stroke-width="0.3"/>
  <path d="M24.6 22.9l-.1 2.2 2.2-4.3-2.1 2.1z" fill="#E4751F" stroke="#E4751F" stroke-width="0.3"/>
  <path d="M18.6 21l-.5 2.7.6 3.2.1-4.2-0.2-1.7z" fill="#E4751F" stroke="#E4751F" stroke-width="0.3"/>
  <path d="M21.4 21l-.2 1.7.1 4.2.6-3.2-.5-2.7z" fill="#E4751F" stroke="#E4751F" stroke-width="0.3"/>
</svg>
