<svg xmlns="http://www.w3.org/2000/svg" viewBox="0 0 40 40" fill="none">
  <rect width="40" height="40" rx="8" fill="#F5F5F5"/>
  <circle cx="20" cy="20" r="12" fill="#000"/>
  <defs>
    <linearGradient id="unisat" x1="14" y1="14" x2="26" y2="26" gradientUnits="userSpaceOnUse">
      <stop stop-color="#F7931A"/>
      <stop offset="1" stop-color="#F5A623"/>
    </linearGradient>
  </defs>
  <path d="M20 10c-1 0-3 .5-4 2-1.5 2-1 5 .5 7l5 6c.3.3.7.3 1 0l2-2.5c1.5-2 2-4.5.5-6.5-1-1.5-3-2.5-5-2z" fill="url(#unisat)" opacity="0.8"/>
  <path d="M18 15c-.8 0-2 .4-2.5 1.5-.8 1.5 0 3.5 1 4.5l3 3c.2.2.4.2.6 0l1-1.2c1-1.2 1-3 0-4-.6-.8-1.8-1.5-3.1-1.8z" fill="#F7931A"/>
</svg>
