<svg xmlns="http://www.w3.org/2000/svg" viewBox="0 0 40 40" fill="none">
  <rect width="40" height="40" rx="8" fill="#F5F5F5"/>
  <circle cx="20" cy="20" r="12" fill="#3B99FC"/>
  <path d="M13.5 16.5c3.6-3.5 9.4-3.5 13 0l.4.4c.2.2.2.5 0 .6l-1.3 1.3c-.1.1-.2.1-.3 0l-.6-.6c-2.5-2.4-6.5-2.4-9 0l-.6.6c-.1.1-.2.1-.3 0L13.5 17.5c-.2-.2-.2-.4 0-.6l0-.4z" fill="#fff"/>
  <path d="M28.6 19.3l1.2 1.1c.2.2.2.5 0 .6l-5.2 5.1c-.2.2-.5.2-.6 0l-3.7-3.6c0-.1-.1-.1-.2 0l-3.7 3.6c-.2.2-.5.2-.6 0l-5.2-5.1c-.2-.2-.2-.5 0-.6l1.2-1.1c.2-.2.5-.2.6 0l3.7 3.6c0 .1.1.1.2 0l3.7-3.6c.2-.2.5-.2.6 0l3.7 3.6c0 .1.1.1.2 0l3.7-3.6c.2-.2.4-.2.6 0z" fill="#fff"/>
</svg>
