<svg preserveAspectRatio="none" width="100%" height="100%" overflow="visible" style="display: block;" viewBox="0 0 125 40" fill="none" xmlns="http://www.w3.org/2000/svg">
<g id="VistaLogo 1" clip-path="url(#clip0_0_6)">
<path id="Vector" d="M42.7654 1.84339C43.0756 0.954793 42.3983 0.0321045 41.436 0.0321045H28.3722C27.771 0.0321045 27.2364 0.40539 27.0426 0.960543L14.0694 38.1329C13.7593 39.0214 14.4366 39.9441 15.399 39.9441H28.4626C29.064 39.9441 29.5986 39.5707 29.7921 39.0156L42.7654 1.84339Z" fill="var(--fill-0, #F85858)"/>
<path id="Vector_2" fill-rule="evenodd" clip-rule="evenodd" d="M3.82988 3.04581L15.6557 36.9304H25.1586L13.3328 3.04581H3.82988ZM1.47582 0.0321045C0.513426 0.0321045 -0.163874 0.954793 0.146249 1.84339L13.1195 39.0156C13.3132 39.5707 13.8478 39.9441 14.449 39.9441H27.5127C28.475 39.9441 29.1525 39.0214 28.8421 38.1329L15.869 0.960543C15.6753 0.40539 15.1407 0.0321045 14.5395 0.0321045H1.47582Z" fill="var(--fill-0, #F85858)"/>
<path id="Vector_3" d="M55.8702 12.1096H58.9798L62.1118 26.247H62.5233L65.6556 12.1096H68.7649L65.1525 27.7186H59.4826L55.8702 12.1096Z" fill="var(--fill-0, white)"/>
<path id="Vector_4" d="M70.9666 12.1096H81.6663V14.9192H77.8253V24.9091H81.6663V27.7186H70.9666V24.9091H74.8076V14.9192H70.9666V12.1096Z" fill="var(--fill-0, white)"/>
<path id="Vector_5" d="M93.0587 16.8815C93.0587 16.2572 92.8073 15.7146 92.3042 15.2537C91.8166 14.7929 91.123 14.5625 90.2239 14.5625C89.4618 14.5625 88.8596 14.7185 88.4177 15.0307C87.9756 15.3281 87.7548 15.7369 87.7548 16.2572C87.7548 16.5248 87.8079 16.77 87.9146 16.993C88.0214 17.2012 88.2042 17.3944 88.4635 17.5728C88.7376 17.7363 89.0882 17.885 89.5152 18.0188C89.957 18.1526 90.5135 18.2789 91.184 18.3979C92.8607 18.6952 94.141 19.1932 95.025 19.8919C95.909 20.5906 96.3508 21.6238 96.3508 22.9914V23.259C96.3508 23.9874 96.2138 24.649 95.9393 25.2436C95.6803 25.8233 95.2992 26.3213 94.7964 26.7376C94.2933 27.1538 93.6837 27.4734 92.9674 27.6964C92.2508 27.9195 91.4433 28.031 90.5438 28.031C89.4921 28.031 88.5624 27.8896 87.7548 27.6071C86.9621 27.3099 86.2992 26.9085 85.7657 26.4031C85.232 25.8828 84.8284 25.2807 84.5539 24.5969C84.2795 23.8982 84.1424 23.1401 84.1424 22.3224V21.6535H87.1601V22.1887C87.1601 23.1252 87.4346 23.8759 87.9831 24.4408C88.5472 24.9908 89.416 25.2659 90.5896 25.2659C91.5042 25.2659 92.1823 25.0726 92.6244 24.6861C93.0663 24.2996 93.2874 23.8388 93.2874 23.3036C93.2874 23.0509 93.2416 22.813 93.1503 22.59C93.0587 22.3522 92.8986 22.1441 92.6699 21.9657C92.4416 21.7724 92.1289 21.6015 91.7326 21.4528C91.3365 21.3041 90.8334 21.1778 90.2239 21.0737C89.416 20.9399 88.6767 20.769 88.0062 20.5608C87.3354 20.3378 86.7486 20.048 86.2458 19.6912C85.7579 19.3344 85.377 18.8884 85.1025 18.3533C84.8284 17.8181 84.691 17.164 84.691 16.391V16.2572C84.691 15.6179 84.8205 15.0307 85.0798 14.4956C85.3542 13.9455 85.7275 13.4698 86.2 13.0684C86.6876 12.6671 87.2669 12.3549 87.9376 12.1319C88.6233 11.9089 89.3854 11.7974 90.2239 11.7974C91.1688 11.7974 92.007 11.9312 92.7388 12.1988C93.4702 12.4515 94.0801 12.8008 94.5677 13.2468C95.0708 13.6928 95.4441 14.2057 95.6879 14.7855C95.9469 15.3652 96.0767 15.9747 96.0767 16.6139V17.4167H93.0587V16.8815Z" fill="var(--fill-0, white)"/>
<path id="Vector_6" d="M98.5528 12.1096H110.076V14.9192H105.823V27.7186H102.805V14.9192H98.5528V12.1096Z" fill="var(--fill-0, white)"/>
<path id="Vector_7" d="M121.033 24.3739H115.592L114.815 27.7186H111.66L115.478 12.1096H121.148L124.966 27.7186H121.811L121.033 24.3739ZM116.232 21.5643H120.371L118.519 13.5813H118.107L116.232 21.5643Z" fill="var(--fill-0, white)"/>
</g>
<defs>
<clipPath id="clip0_0_6">
<rect width="125" height="40" fill="white"/>
</clipPath>
</defs>
</svg>
