<svg preserveAspectRatio="none" width="100%" height="100%" overflow="visible" style="display: block;" viewBox="0 0 16 16" fill="none" xmlns="http://www.w3.org/2000/svg">
<g id="wallet (1) 1" clip-path="url(#clip0_0_28)">
<path id="Vector" d="M14 4H3.33333C2.76067 4 2.21867 3.752 1.84333 3.334C2.21 2.92467 2.74267 2.66667 3.33333 2.66667H15.3333C15.702 2.66667 16 2.368 16 2C16 1.632 15.702 1.33333 15.3333 1.33333H3.33333C1.49267 1.33333 -2.38419e-07 2.826 -2.38419e-07 4.66667V11.3333C-2.38419e-07 13.174 1.49267 14.6667 3.33333 14.6667H14C15.1047 14.6667 16 13.7713 16 12.6667V6C16 4.89533 15.1047 4 14 4ZM14.6667 12.6667C14.6667 13.034 14.368 13.3333 14 13.3333H3.33333C2.23067 13.3333 1.33333 12.436 1.33333 11.3333V4.66533C1.90267 5.09133 2.60267 5.33333 3.33333 5.33333H14C14.368 5.33333 14.6667 5.63267 14.6667 6V12.6667ZM13.3333 9.33333C13.3333 9.70133 13.0347 10 12.6667 10C12.2987 10 12 9.70133 12 9.33333C12 8.96533 12.2987 8.66667 12.6667 8.66667C13.0347 8.66667 13.3333 8.96533 13.3333 9.33333Z" fill="var(--fill-0, white)"/>
</g>
<defs>
<clipPath id="clip0_0_28">
<rect width="16" height="16" fill="white"/>
</clipPath>
</defs>
</svg>
